HIERARCHY
ROOT Hips
{
  OFFSET 3.13124 94.3669 -3.18751
  CHANNELS  6 Xposition Yposition Zposition Zrotation Xrotation Yrotation
  JOINT LeftUpLeg
  {
    OFFSET 8.64259 1.95398 -2.38835
    CHANNELS 3 Zrotation Xrotation Yrotation
    JOINT LeftLeg
    {
      OFFSET 43.7702 0 0
      CHANNELS 3 Zrotation Xrotation Yrotation
      JOINT LeftFoot
      {
        OFFSET 40.6238 0 0
        CHANNELS 3 Zrotation Xrotation Yrotation
        JOINT LeftToeBase
        {
          OFFSET 12.7242 0 0
          CHANNELS 3 Zrotation Xrotation Yrotation
          End Site
          {
            OFFSET 0 0 0
          }
        }
      }
    }
  }
  JOINT RightUpLeg
  {
    OFFSET -8.2249 1.95398 -2.59336
    CHANNELS 3 Zrotation Xrotation Yrotation
    JOINT RightLeg
    {
      OFFSET 43.5653 0 0
      CHANNELS 3 Zrotation Xrotation Yrotation
      JOINT RightFoot
      {
        OFFSET 40.6238 0 0
        CHANNELS 3 Zrotation Xrotation Yrotation
        JOINT RightToeBase
        {
          OFFSET 12.7242 0 0
          CHANNELS 3 Zrotation Xrotation Yrotation
          End Site
          {
            OFFSET 0 0 0
          }
        }
      }
    }
  }
  JOINT Spine
  {
    OFFSET 0.165834 0.87714 6.61349
    CHANNELS 3 Zrotation Xrotation Yrotation
    JOINT Spine1
    {
      OFFSET 7.38962 1.71661e-005 0
      CHANNELS 3 Zrotation Xrotation Yrotation
      JOINT Spine2
      {
        OFFSET 11.9445 1.14441e-005 0
        CHANNELS 3 Zrotation Xrotation Yrotation
        JOINT Spine3
        {
          OFFSET 14.7254 4.19617e-005 0
          CHANNELS 3 Zrotation Xrotation Yrotation
          JOINT Spine4
          {
            OFFSET 10.9679 0 0
            CHANNELS 3 Zrotation Xrotation Yrotation
            JOINT RightShoulder
            {
              OFFSET 2.46616 -1.6653 3.69651
              CHANNELS 3 Zrotation Xrotation Yrotation
              JOINT RightArm
              {
                OFFSET 13.0012 0 0
                CHANNELS 3 Zrotation Xrotation Yrotation
                JOINT RightForeArm
                {
                  OFFSET 28.7848 1.52588e-005 0
                  CHANNELS 3 Zrotation Xrotation Yrotation
                  JOINT RightHand
                  {
                    OFFSET 26.5688 1.52588e-005 0
                    CHANNELS 3 Zrotation Xrotation Yrotation
                    End Site
                    {
                      OFFSET 0 0 0
                    }
                  }
                }
              }
            }
            JOINT LeftShoulder
            {
              OFFSET 2.38034 -1.29275 -3.75231
              CHANNELS 3 Zrotation Xrotation Yrotation
              JOINT LeftArm
              {
                OFFSET 16.3182 6.10352e-005 0
                CHANNELS 3 Zrotation Xrotation Yrotation
                JOINT LeftForeArm
                {
                  OFFSET 27.0901 0 0
                  CHANNELS 3 Zrotation Xrotation Yrotation
                  JOINT LeftHand
                  {
                    OFFSET 24.5451 1.52588e-005 0
                    CHANNELS 3 Zrotation Xrotation Yrotation
                    End Site
                    {
                      OFFSET 0 0 0
                    }
                  }
                }
              }
            }
            JOINT Neck
            {
              OFFSET 5.0226 -0.0266342 0
              CHANNELS 3 Zrotation Xrotation Yrotation
              JOINT Head
              {
                OFFSET 6.69363 2.86102e-005 0
                CHANNELS 3 Zrotation Xrotation Yrotation
                End Site
                {
                  OFFSET 0 0 0
                }
              }
            }
          }
        }
      }
    }
  }
}
MOTION
Frames:	7
Frame Time:	0.0333333
-131.755 93.5582 -104.377 16.0773 -28.3946 37.9612 162.231 62.559 122.292 0.0543243 -1.07832 6.90069 42.7281 -18.221 -16.1597 28.7808 6.20008e-006 3.1992e-007 -174.16 74.2098 77.3305 -15.9818 -7.11069 -0.457042 21.4692 -0.799846 0.792233 28.7808 1.29109e-005 2.55165e-005 1.62498 12.4498 -90.4581 1.9116 -2.04997 1.2713 -9.75842 -1.99204 1.36029 -32.3051 -2.33724 0.596198 -12.2924 -2.33723 0.596186 87.3393 -15.3555 -120.525 27.8611 1.23573 -87.413 138.938 85.6068 -145.005 -29.5119 15.1629 -59.8245 -85.1558 -31.3247 82.9145 -20.4538 -13.1005 -75.8586 3.8025 44.028 -4.87866 -3.02475 -0.104369 -1.95567 -46.8359 0.255736 11.6246 -3.8861 3.64119 -1.13792 
-131.444 93.5623 -104.27 16.261 -27.6529 38.618 161.846 63.2125 122.44 0.0673437 -0.410893 6.6408 42.7519 -18.1154 -16.065 28.7808 6.20008e-006 3.1992e-007 -173.731 74.3249 76.4564 -16.1093 -6.50728 -0.420172 22.2159 -0.518473 1.10339 28.7808 1.29109e-005 2.55165e-005 1.61385 12.4609 -90.3694 1.89066 -2.09797 1.40924 -9.77945 -2.03392 1.50021 -32.3262 -2.42446 0.713326 -12.3135 -2.42447 0.713326 87.4021 -15.287 -120.424 27.9224 0.991971 -87.7844 156.567 82.156 -162.562 -27.3994 14.833 -62.5154 -84.7018 -30.3904 83.5955 -19.3721 -14.6046 -76.4737 3.28223 34.5044 -4.35173 -2.8091 -0.101315 -3.27501 -45.8305 0.254515 12.0571 -4.75876 3.65197 -1.3171 
-131.207 93.5563 -104.217 16.634 -27.0126 39.7255 161.353 63.9298 122.747 -0.119532 0.730502 6.46778 42.885 -18.014 -15.9413 28.7808 6.20008e-006 3.1992e-007 -173.485 74.299 75.8787 -16.3277 -5.45764 -0.357861 22.6159 -0.310569 1.32976 28.7808 1.29109e-005 2.55165e-005 1.63081 12.476 -90.3085 1.86042 -2.14784 1.51392 -9.80975 -2.07913 1.60696 -32.3567 -2.50347 0.798175 -12.344 -2.50347 0.79815 87.5913 -15.0434 -120.145 27.9844 0.69497 -88.2794 158.733 81.2419 -164.713 -27.0585 15.1285 -64.139 -84.2955 -29.3081 84.1734 -18.3013 -16.1184 -76.8335 3.06239 29.3075 -4.12681 2.67049 -0.220505 -7.42348 -44.4807 0.415482 12.3049 -5.61731 3.73946 -1.76343 
-131.064 93.5564 -104.179 17.1161 -26.5389 41.184 161.031 64.5513 123.109 -0.251557 2.43312 6.26715 42.7441 -18.0315 -15.9993 28.7808 6.20008e-006 3.1992e-007 -173.681 73.9563 75.9516 -16.33 -4.01095 -0.270918 23.2585 -0.0612243 1.5807 28.7808 1.29109e-005 2.55165e-005 1.62959 12.4889 -90.2322 1.83516 -2.14123 1.62219 -9.83515 -2.06776 1.71487 -32.3813 -2.52971 0.903454 -12.3687 -2.52971 0.903457 87.854 -14.8158 -119.67 28.2067 0.114938 -88.6995 143.461 85.0879 -149.517 -27.9272 15.3658 -63.2663 -83.8428 -27.6548 84.7537 -17.3374 -17.5082 -77.9135 2.85103 23.3768 -3.91025 4.64178 -0.369508 -8.91469 -43.0289 0.678881 11.989 -6.4674 3.76921 -1.7875 
-131.016 93.5706 -104.175 17.6712 -26.3058 43.0676 160.519 65.1182 123.807 -0.554125 4.24455 6.25266 42.5885 -18.0357 -16.0527 28.7808 6.20008e-006 3.1992e-007 -174.318 73.3097 76.7592 -16.1472 -2.41505 -0.175422 23.4245 -0.0727755 1.53662 28.7808 1.29109e-005 2.55165e-005 1.63594 12.5008 -90.1564 1.81114 -2.0314 1.70519 -9.85946 -1.95441 1.79294 -32.4035 -2.44992 1.01569 -12.3908 -2.44992 1.01568 88.5547 -14.0791 -118.472 28.1895 -0.112908 -89.3797 107.438 87.1338 -113.549 -30.3871 16.5581 -62.5668 -83.7928 -25.8719 84.5042 -15.9096 -19.6243 -79.0658 2.79333 21.5814 -3.85062 2.73087 -0.207512 -7.02419 -41.8056 1.30018 10.9732 -6.28213 4.00484 -0.998997 
-131.031 93.5994 -104.135 18.5701 -26.4036 45.4574 160.519 65.3773 124.222 -0.725029 6.1162 6.07627 42.5964 -17.8495 -15.8923 28.7808 6.20008e-006 3.1992e-007 -175.321 72.1539 78.1354 -15.9429 -0.422838 -0.0546367 23.6534 0.129544 1.738 28.7808 1.29109e-005 2.55165e-005 1.69109 12.5348 -90.1045 1.74042 -1.81155 1.77121 -9.93059 -1.73185 1.84922 -32.4711 -2.26007 1.14483 -12.4585 -2.26007 1.14483 89.2713 -13.8644 -116.815 28.4051 -0.770322 -89.9861 17.6871 82.6537 -23.9407 -32.1432 17.4809 -62.3197 -84.0474 -23.698 83.5035 -14.3833 -21.8862 -79.6139 2.88628 24.4399 -3.94637 4.57202 -0.210959 -6.33485 -41.5101 1.62372 9.48892 -4.07885 3.94882 -1.69647 
-131.154 93.6532 -104.088 19.4977 -26.4114 48.0363 160.243 65.8045 124.992 -0.664812 6.59718 5.64722 41.3272 -17.3864 -15.8789 28.7808 6.20008e-006 3.1992e-007 -176.253 70.931 79.5264 -15.5788 1.24991 0.0496489 23.7852 0.561317 2.21532 28.7808 1.29109e-005 2.55165e-005 1.72727 12.5423 -90.0333 1.72356 -1.54544 1.82786 -9.94784 -1.46351 1.89407 -32.4846 -2.02328 1.27891 -12.472 -2.02329 1.27891 89.9936 -13.9328 -114.923 28.2253 -0.757325 -90.9072 8.5713 77.4541 -14.9224 -34.4649 18.2548 -60.8273 -84.4157 -21.2336 82.1054 -13.1162 -23.7978 -80.1989 2.86504 23.8127 -3.92434 7.22086 -0.342201 -7.38515 -40.3154 3.09003 7.3615 -3.6504 4.86012 0.211584 
